<svg width="60" height="60" viewBox="0 0 60 60" fill="none" xmlns="http://www.w3.org/2000/svg">
<path d="M29.3552 0.000141826C29.2296 0.00377948 29.0851 0.0437912 29.006 0.140093L11.2317 18.6207C10.9361 18.9425 10.916 19.0143 11.3124 19.0176L46.9147 18.9358C47.404 18.901 47.406 18.9224 47.0892 18.5623L29.624 0.0817008C29.5879 0.0330711 29.481 -0.00253855 29.3552 0.000141826ZM32.7678 1.64627L48.7956 18.5859C49.0102 18.8122 49.0626 18.825 49.4405 18.6676L57.8908 15.3053C58.4445 15.0882 58.3678 15.0437 57.9981 14.8266L32.7678 1.64627ZM25.2845 2.26506C25.277 2.25127 25.1468 2.33589 24.8544 2.51031L1.58546 15.8189L8.8672 18.691C9.24704 18.7997 9.36051 18.8056 9.60617 18.5391L24.9624 2.60355C25.1785 2.38586 25.2918 2.27884 25.2845 2.26506ZM59.1269 16.0992C59.0546 16.1036 58.9405 16.1398 58.7642 16.2041L50.0852 19.6482C49.7771 19.7698 49.7963 19.9335 49.9107 20.1386L60 42.3784L59.2747 16.4728C59.2524 16.1896 59.2476 16.0918 59.1269 16.0992ZM0.927126 16.7881L0 41.9934L8.54465 20.1853C8.67089 19.8632 8.6678 19.847 8.41024 19.7417L0.927126 16.7881ZM47.3846 20.0568L10.9761 20.1386C10.456 20.1319 10.4773 20.1322 10.7342 20.5004L29.2206 47.5969C29.5328 48.0102 29.4993 47.9974 29.8252 47.5737L47.586 20.4307C47.742 20.2149 47.853 20.0643 47.3846 20.0568ZM48.8357 20.769C48.8022 20.7813 48.7656 20.8914 48.661 21.0608L30.7794 48.4023C30.584 48.691 30.5377 48.7944 31.0077 48.7293L59.3954 45.3322C59.8458 45.2427 59.8321 45.103 59.6777 44.7134L48.9699 21.0727C48.8991 20.8462 48.8694 20.7568 48.8357 20.769ZM9.57907 21.026C9.54426 21.0476 9.51298 21.1628 9.44489 21.3294L0.376313 44.5265C0.221866 45.0191 0.204462 45.2045 0.77929 45.2969L27.9042 48.7058C28.4171 48.773 28.3514 48.5484 28.2265 48.3323L9.767 21.271C9.65111 21.0667 9.61388 21.0041 9.57907 21.026ZM2.5258 46.6513L29.1402 59.7732C29.4848 59.9549 29.5652 59.8889 29.5163 59.5749L28.952 50.3755C28.9366 50.0785 28.8903 49.9575 28.5356 49.9085L2.5258 46.6513ZM57.5551 46.6745L30.5377 49.92C30.1812 49.9656 30.2456 50.1176 30.242 50.3402L30.8197 59.703C30.8495 59.9869 30.8398 60.0891 31.2361 59.9132L57.5551 46.6745Z" fill="#4D4747"/>
</svg>
